<svg width="34" height="34" viewBox="0 0 34 34" fill="none" xmlns="http://www.w3.org/2000/svg">
<circle cx="17" cy="17" r="15.75" fill="#7021BF" stroke="white" stroke-width="1.5"/>
<path d="M8.90909 7C7.86482 7 7 7.86482 7 8.90909V26.0909C7 27.1352 7.86482 28 8.90909 28H26.0909C27.1352 28 28 27.1352 28 26.0909V8.90909C28 7.86482 27.1352 7 26.0909 7H8.90909ZM8.90909 8.90909H26.0909V26.0909H21.1387V19.6477H23.6148L23.9728 16.7841H21.1397V14.9342C21.1397 14.0999 21.344 13.5329 22.541 13.5329H24.0921V10.9375C23.8277 10.9041 22.9104 10.8478 21.8556 10.8478C19.6554 10.8478 18.1567 12.1717 18.1567 14.6364V16.7841H15.651V19.6477H18.1558V26.0909H8.90909V8.90909Z" fill="white"/>
</svg>
