<svg width="34" height="34" viewBox="0 0 34 34" fill="none" xmlns="http://www.w3.org/2000/svg">
<circle cx="17" cy="17" r="15.75" fill="#7021BF" stroke="white" stroke-width="1.5"/>
<path d="M17.4919 11.0984C16.0618 11.0984 14.6902 11.6666 13.679 12.6778C12.6677 13.6891 12.0996 15.0606 12.0996 16.4907C12.0996 17.9208 12.6677 19.2924 13.679 20.3036C14.6902 21.3149 16.0618 21.883 17.4919 21.883C18.922 21.883 20.2935 21.3149 21.3048 20.3036C22.316 19.2924 22.8841 17.9208 22.8841 16.4907C22.8841 15.0606 22.316 13.6891 21.3048 12.6778C20.2935 11.6666 18.922 11.0984 17.4919 11.0984V11.0984ZM17.4919 19.9927C16.5628 19.9927 15.6718 19.6236 15.0148 18.9666C14.3578 18.3097 13.9888 17.4186 13.9888 16.4896C13.9888 15.5605 14.3578 14.6694 15.0148 14.0125C15.6718 13.3555 16.5628 12.9864 17.4919 12.9864C18.421 12.9864 19.312 13.3555 19.969 14.0125C20.6259 14.6694 20.995 15.5605 20.995 16.4896C20.995 17.4186 20.6259 18.3097 19.969 18.9666C19.312 19.6236 18.421 19.9927 17.4919 19.9927V19.9927Z" fill="white"/>
<path d="M23.0979 12.1573C23.7922 12.1573 24.355 11.5945 24.355 10.9002C24.355 10.206 23.7922 9.64313 23.0979 9.64313C22.4036 9.64313 21.8408 10.206 21.8408 10.9002C21.8408 11.5945 22.4036 12.1573 23.0979 12.1573Z" fill="white"/>
<path d="M27.4437 9.62206C27.1738 8.92491 26.7612 8.29181 26.2325 7.76328C25.7038 7.23476 25.0705 6.82245 24.3733 6.55275C23.5574 6.24647 22.6954 6.08086 21.8241 6.06297C20.7011 6.01399 20.3454 6 17.4977 6C14.6499 6 14.2849 6 13.1713 6.06297C12.3006 6.07995 11.4392 6.24559 10.6244 6.55275C9.92696 6.82214 9.29354 7.23433 8.76477 7.7629C8.23601 8.29147 7.82357 8.92473 7.55392 9.62206C7.24758 10.4379 7.08235 11.3 7.0653 12.1713C7.01516 13.2931 7 13.6488 7 16.4977C7 19.3454 7 19.7081 7.0653 20.8241C7.0828 21.6964 7.24722 22.557 7.55392 23.3744C7.82432 24.0715 8.23716 24.7045 8.76606 25.233C9.29495 25.7615 9.92827 26.1739 10.6256 26.4437C11.4389 26.7623 12.3006 26.9398 13.1736 26.9685C14.2966 27.0175 14.6523 27.0327 17.5 27.0327C20.3477 27.0327 20.7127 27.0327 21.8264 26.9685C22.6976 26.9508 23.5596 26.7856 24.3756 26.4799C25.0727 26.2096 25.7057 25.7969 26.2344 25.2682C26.7631 24.7396 27.1758 24.1065 27.4461 23.4094C27.7528 22.5931 27.9172 21.7325 27.9347 20.8602C27.9848 19.7384 28 19.3827 28 16.5338C28 13.6849 28 13.3234 27.9347 12.2074C27.9211 11.3238 27.755 10.4491 27.4437 9.62206V9.62206ZM26.0234 20.7378C26.0159 21.4098 25.8932 22.0756 25.6607 22.7062C25.4856 23.1597 25.2175 23.5715 24.8736 23.9152C24.5298 24.2588 24.1178 24.5267 23.6643 24.7015C23.0406 24.9329 22.3819 25.0556 21.7168 25.0642C20.609 25.1155 20.2964 25.1283 17.4557 25.1283C14.6126 25.1283 14.3222 25.1283 13.1934 25.0642C12.5286 25.0561 11.8702 24.9334 11.2471 24.7015C10.7919 24.5277 10.3783 24.2604 10.033 23.9167C9.68771 23.573 9.4184 23.1606 9.2425 22.7062C9.01329 22.0824 8.89069 21.4245 8.87983 20.7599C8.82969 19.6521 8.81803 19.3396 8.81803 16.4988C8.81803 13.6569 8.81803 13.3666 8.87983 12.2366C8.88737 11.5649 9.01004 10.8995 9.2425 10.2693C9.59818 9.34918 10.327 8.625 11.2471 8.27282C11.8705 8.04209 12.5287 7.91944 13.1934 7.91015C14.3024 7.86001 14.6138 7.84601 17.4557 7.84601C20.2976 7.84601 20.5891 7.84601 21.7168 7.91015C22.382 7.91815 23.0408 8.04084 23.6643 8.27282C24.1178 8.44806 24.5297 8.7162 24.8735 9.06001C25.2173 9.40382 25.4855 9.81572 25.6607 10.2693C25.8899 10.8931 26.0125 11.5511 26.0234 12.2156C26.0735 13.3246 26.0863 13.6359 26.0863 16.4778C26.0863 19.3186 26.0864 19.6241 26.0362 20.7389H26.0234V20.7378Z" fill="white"/>
</svg>
