<svg width="34" height="34" viewBox="0 0 34 34" fill="none" xmlns="http://www.w3.org/2000/svg">
<circle cx="17" cy="17" r="15.75" fill="#7021BF" stroke="white" stroke-width="1.5"/>
<path d="M27.9932 9.30767C27.9932 9.13121 27.9465 8.95791 27.8578 8.80536C27.7691 8.65282 27.6416 8.52646 27.4883 8.43914C27.335 8.35181 27.1612 8.30662 26.9848 8.30816C26.8084 8.3097 26.6355 8.35792 26.4837 8.44791C25.8983 8.79662 25.2679 9.06369 24.6102 9.24169C23.6714 8.43619 22.4741 7.99545 21.2371 8.00004C19.8803 8.00166 18.5771 8.53052 17.6028 9.47494C16.6286 10.4194 16.0594 11.7054 16.0156 13.0616C13.3402 12.6351 10.9153 11.2387 9.20352 9.13872C9.10037 9.01372 8.96871 8.91533 8.81961 8.85183C8.67052 8.78833 8.50835 8.76158 8.34676 8.77382C8.1852 8.78719 8.02933 8.83969 7.8926 8.92677C7.75587 9.01386 7.6424 9.13293 7.56197 9.27368C7.14961 9.99337 6.9128 10.8002 6.87076 11.6286C6.82872 12.457 6.98265 13.2836 7.32004 14.0413L7.31804 14.0423C7.16607 14.1357 7.04065 14.2666 6.95382 14.4224C6.86699 14.5782 6.82166 14.7537 6.82218 14.9321C6.82058 15.0788 6.8296 15.2255 6.84917 15.371C6.95127 16.6287 7.50862 17.8059 8.41674 18.682C8.35511 18.7995 8.31754 18.9281 8.30621 19.0603C8.29488 19.1925 8.31002 19.3256 8.35075 19.4518C8.74662 20.6856 9.58866 21.7273 10.7121 22.373C9.57058 22.8143 8.33806 22.9681 7.1231 22.8209C6.89833 22.7929 6.67074 22.8421 6.47759 22.9604C6.28444 23.0787 6.13718 23.2591 6.05994 23.472C5.98269 23.6849 5.98004 23.9178 6.05241 24.1324C6.12478 24.347 6.26788 24.5307 6.45828 24.6534C8.54791 25.999 10.9809 26.7144 13.4663 26.7138C16.2848 26.7455 19.0347 25.8449 21.2884 24.1521C23.542 22.4593 25.1731 20.0691 25.9278 17.3534C26.2807 16.1705 26.4608 14.9428 26.4627 13.7084L26.4617 13.5085C26.9837 12.9455 27.3881 12.2839 27.651 11.5625C27.914 10.8412 28.0304 10.0746 27.9932 9.30767V9.30767ZM24.6882 12.5188C24.5229 12.7139 24.4391 12.9653 24.4542 13.2206C24.4642 13.3855 24.4632 13.5515 24.4632 13.7084C24.4611 14.7513 24.3082 15.7884 24.0094 16.7876C23.3932 19.0985 22.0193 21.1359 20.1077 22.5733C18.1962 24.0107 15.8575 24.765 13.4663 24.7154C12.6077 24.7155 11.752 24.6145 10.917 24.4144C11.982 24.071 12.9778 23.5416 13.8582 22.8509C14.0206 22.7232 14.1394 22.5485 14.1984 22.3506C14.2574 22.1527 14.2536 21.9413 14.1877 21.7456C14.1217 21.55 13.9968 21.3795 13.83 21.2577C13.6633 21.1359 13.4629 21.0687 13.2564 21.0654C12.4253 21.0524 11.6318 20.7173 11.043 20.1306C11.1923 20.1026 11.3406 20.0677 11.4879 20.0257C11.7038 19.9643 11.8929 19.832 12.0245 19.6501C12.1561 19.4682 12.2226 19.2473 12.2134 19.0229C12.2041 18.7986 12.1197 18.5839 11.9735 18.4134C11.8274 18.243 11.6282 18.1266 11.4079 18.0832C10.9255 17.9879 10.4716 17.7827 10.0815 17.4834C9.69137 17.1841 9.37553 16.7989 9.15853 16.3577C9.33923 16.3824 9.52109 16.3977 9.70338 16.4037C9.92 16.4072 10.1321 16.3417 10.309 16.2166C10.4859 16.0915 10.6183 15.9133 10.6871 15.7079C10.7531 15.5007 10.7498 15.2776 10.6777 15.0725C10.6055 14.8674 10.4684 14.6914 10.2872 14.5712C9.84727 14.2783 9.48684 13.8809 9.23822 13.4146C8.98959 12.9482 8.86054 12.4274 8.86261 11.8989C8.86261 11.833 8.86461 11.766 8.86861 11.701C11.1094 13.791 14.0161 15.0231 17.0763 15.18C17.2308 15.1859 17.3847 15.1565 17.5262 15.0942C17.6677 15.0318 17.7931 14.9381 17.8931 14.8201C17.9921 14.7014 18.0622 14.5613 18.0979 14.411C18.1337 14.2606 18.134 14.1039 18.099 13.9534C18.0418 13.7146 18.0126 13.4701 18.012 13.2246C18.0131 12.3695 18.3532 11.5498 18.9578 10.9453C19.5624 10.3407 20.3821 10.0005 21.2371 9.99948C21.6772 9.99818 22.1127 10.0881 22.5162 10.2636C22.9197 10.4391 23.2824 10.6964 23.5815 11.0192C23.6968 11.1433 23.8419 11.2358 24.0031 11.2879C24.1643 11.3401 24.3361 11.3501 24.5022 11.3171C24.9129 11.2373 25.3177 11.1297 25.7139 10.9952C25.4438 11.5479 25.0986 12.0606 24.6882 12.5188V12.5188Z" fill="white"/>
</svg>
